<?xml version="1.0" encoding="utf-8"?>
<!-- Generator: Adobe Illustrator 16.0.0, SVG Export Plug-In . SVG Version: 6.00 Build 0)  -->
<!DOCTYPE svg PUBLIC "-//W3C//DTD SVG 1.1//EN" "http://www.w3.org/Graphics/SVG/1.1/DTD/svg11.dtd">
<svg version="1.1" id="Layer_1" xmlns="http://www.w3.org/2000/svg" xmlns:xlink="http://www.w3.org/1999/xlink" x="0px" y="0px"
	 width="300px" height="300px" viewBox="0 0 300 300" enable-background="new 0 0 300 300" xml:space="preserve">
<g>
	<path fill-rule="evenodd" clip-rule="evenodd" fill="#338A48" d="M234.243,218.72c-3.105,3.1-6.116,6.117-9.145,9.115
		c-0.593,0.585-0.325,1.201-0.212,1.839c1.865,10.544-4.608,19.07-15.237,19.96c-1.432,0.12-2.095,0.272-2.165,2.026
		c-0.268,6.584-3.484,11.464-9.467,14.188c-6.048,2.752-11.866,1.966-17.201-2.057c-0.259-0.194-0.517-0.393-0.789-0.603
		c-0.688,0.519-0.692,1.297-0.955,1.944c-4.324,10.672-17.961,13.79-26.437,5.966c-2.526-2.333-4.804-4.936-7.449-7.678
		c-1.104,3.098-2.309,5.593-4.278,7.64c-6.46,6.712-16.854,6.853-23.681,0.133c-9.166-9.021-18.213-18.166-27.306-27.263
		c-8.04-8.044-16.072-16.096-24.133-24.17c-0.673,0.455-0.669,1.142-0.916,1.691c-1.598,3.556-5.186,5.565-9.068,4.845
		c-7.281-1.353-14.553-2.757-21.801-4.277c-5.152-1.081-7.764-5.034-6.738-10.261c4.349-22.119,8.773-44.226,13.171-66.335
		c1.22-6.133,2.425-12.269,3.677-18.396c1.044-5.11,5.013-7.786,10.198-6.809c7.034,1.323,14.054,2.722,21.075,4.119
		c3.216,0.64,5.618,2.41,6.675,5.563c0.38,1.131,0.896,1.309,1.908,1.308c15.17-0.022,30.341-0.026,45.511,0.006
		c1.01,0.002,1.69-0.416,2.399-1.021c2.317-1.981,4.66-3.932,7.009-5.876c8.834-7.32,19.915-7.642,29.055-0.626
		c6.426,4.931,12.969,9.55,20.766,12.138c9.265,3.077,18.452,2.693,27.67-0.153c1.11-0.343,1.317-0.736,1.168-1.894
		c-0.562-4.37,1.855-8.167,6.115-9.117c7.707-1.719,15.457-3.268,23.229-4.662c4.158-0.747,8.091,2.465,9.001,7.007
		c3.488,17.427,6.944,34.86,10.413,52.29c2.151,10.813,4.354,21.616,6.434,32.443c1.022,5.324-1.668,9.253-6.957,10.351
		c-6.688,1.385-13.388,2.702-20.092,4.005C239.604,227.278,236.116,225.071,234.243,218.72z M121.156,139.114
		c-13.216,0-25.737,0.022-38.26-0.031c-1.356-0.005-1.548,0.606-1.768,1.72c-4.391,22.195-8.824,44.382-13.27,66.567
		c-0.309,1.538-0.603,2.764,0.826,4.182c17.966,17.827,35.832,35.756,53.74,53.643c3.855,3.852,8.986,4.051,12.534,0.574
		c3.632-3.559,3.458-8.75-0.476-12.725c-4.234-4.275-8.506-8.516-12.762-12.771c-2.893-2.895-3.371-5.055-1.542-6.972
		c1.915-2.008,4.183-1.569,7.14,1.387c9.97,9.969,19.945,19.93,29.902,29.911c2.099,2.105,4.547,3.291,7.543,2.879
		c3.474-0.479,5.922-2.384,7.056-5.747c1.173-3.468,0.271-6.486-2.274-9.04c-6.056-6.071-12.124-12.129-18.187-18.192
		c-3.672-3.672-7.381-7.311-11.005-11.032c-1.983-2.035-1.838-4.768,0.174-6.24c1.808-1.321,3.704-1.038,5.709,0.958
		c6.717,6.688,13.414,13.398,20.118,20.101c6.181,6.179,12.317,12.401,18.557,18.521c4.717,4.625,12.262,3.005,14.273-3.057
		c1.203-3.622,0.175-6.732-2.546-9.438c-11.866-11.8-23.684-23.652-35.512-35.494c-0.635-0.637-1.335-1.268-1.773-2.033
		c-0.959-1.672-0.817-3.34,0.573-4.747c1.305-1.32,2.896-1.58,4.516-0.707c0.847,0.457,1.571,1.184,2.266,1.875
		c11.669,11.649,23.325,23.313,34.988,34.969c0.64,0.64,1.275,1.297,1.99,1.848c3.55,2.732,8.662,2.2,11.587-1.173
		c2.93-3.376,2.749-7.749-0.457-11.003c-15.104-15.327-30.205-30.655-45.311-45.979c-3.932-3.988-7.705-8.146-12.354-11.362
		c-3.058-2.113-6.196-4.047-9.83-5.024c-1.439-0.387-2.246-0.256-2.326,1.636c-0.144,3.368-0.594,6.727-0.96,10.084
		c-1.783,16.354-9.67,25.996-24.572,30.058c-3.926,1.069-5.691-0.016-6.551-3.986c-2.681-12.381-5.146-24.814-8.148-37.116
		c-1.894-7.767,0.2-13.71,6.275-18.585C114.299,144.951,117.458,142.211,121.156,139.114z M153.276,126.656
		c-2.639-0.126-5.513,0.707-7.854,2.634c-10.304,8.48-20.541,17.043-30.749,25.639c-2.13,1.795-3.264,4.213-2.651,7.058
		c2.531,11.736,5.164,23.449,7.673,35.189c0.31,1.452,0.747,1.433,1.938,0.96c6.644-2.636,11.01-7.314,12.99-14.191
		c1.652-5.738,2.042-11.666,2.5-17.57c0.526-6.77,4.702-10.021,11.391-8.668c5.984,1.211,10.942,4.432,15.595,8.146
		c6.98,5.57,12.805,12.349,19.085,18.644c11.758,11.786,23.422,23.666,35.033,35.595c1.478,1.518,2.201,1.376,3.532-0.063
		c2.797-3.023,5.704-5.957,8.74-8.736c1.584-1.45,1.946-2.842,1.522-4.925c-4.137-20.31-8.208-40.634-12.176-60.976
		c-0.389-1.992-0.935-2.297-2.781-1.742c-9.1,2.742-18.293,3.133-27.535,0.695c-9.483-2.501-17.71-7.363-25.241-13.516
		C161.211,128.311,157.801,126.649,153.276,126.656z M56.785,218.487c1.118,0.313,0.982-0.983,1.16-1.864
		c1.61-7.986,3.196-15.977,4.789-23.966c3.844-19.286,7.664-38.577,11.571-57.851c0.395-1.947-0.06-2.696-2.021-3.049
		c-5.993-1.08-11.969-2.259-17.917-3.559c-1.89-0.412-2.484,0.009-2.862,1.94c-4.158,21.237-8.428,42.451-12.66,63.673
		c-1.223,6.133-2.437,12.269-3.605,18.411c-0.143,0.744-0.877,1.794,0.704,2.104C42.726,215.654,49.5,217.028,56.785,218.487z
		 M264.892,212.782c-0.015-0.104-0.067-0.596-0.164-1.08c-5.44-27.327-10.892-54.653-16.305-81.988
		c-0.309-1.556-0.896-1.896-2.468-1.555c-5.864,1.271-11.78,2.297-17.645,3.569c-3.623,0.787-3.147-0.078-2.412,3.688
		c3.192,16.377,6.49,32.733,9.751,49.097c2.137,10.722,4.283,21.441,6.405,32.166c0.224,1.13,0.356,1.994,1.974,1.652
		c6.593-1.398,13.211-2.677,19.824-3.978C264.559,214.217,265.176,214.106,264.892,212.782z"/>
	<path fill-rule="evenodd" clip-rule="evenodd" fill="#338A48" d="M79.114,65.174C65.985,52.949,70.342,36.89,78.377,29.78
		c9.13-8.078,23.048-7.869,31.825,0.708c8.079,7.894,10.803,23.212-1.516,34.654c5.667,2.488,10.648,5.83,14.699,10.443
		c0.508,0.579,0.962,0.311,1.47-0.044c2.891-2.027,6.011-3.643,9.607-5.056c-7.576-6.299-11.149-14.173-10.122-23.816
		c0.709-6.657,3.779-12.199,8.84-16.601c10.166-8.84,25.609-8.128,35.201,1.397c8.582,8.525,12.111,26.302-2.635,39.043
		c3.363,1.444,6.595,2.986,9.493,5.111c0.715,0.523,1.125,0.245,1.623-0.309c1.994-2.21,4.221-4.166,6.657-5.878
		c2.408-1.692,5.032-3.007,7.913-4.327c-5.811-5.245-8.899-11.538-8.485-19.304c0.342-6.399,2.934-11.753,7.686-16.036
		c9.2-8.295,23.204-7.81,31.959,0.956c7.818,7.827,10.534,23.103-1.772,34.439c6.311,2.733,11.701,6.607,16.007,11.933
		c4.726,5.845,7.537,12.502,8.553,19.923c0.809,5.911-1.827,8.889-7.813,8.892c-13.769,0.006-27.537,0.041-41.306-0.043
		c-1.91-0.011-2.297,0.387-1.994,2.301c0.658,4.176-2.037,7.425-6.235,7.885c-0.654,0.072-1.316,0.071-1.976,0.071
		c-23.992,0.003-47.985,0.008-71.978,0c-4.9-0.002-7.515-1.787-8.324-5.635c-0.101-0.478-0.28-1.028-0.142-1.456
		c0.949-2.929-0.438-3.202-2.972-3.178c-13.273,0.124-26.548,0.059-39.822,0.057c-6.648-0.001-9.221-3.103-8.059-9.739
		c2.499-14.282,10.362-24.444,23.497-30.55C78.547,65.487,78.824,65.327,79.114,65.174z M149.757,108.199
		c10.791,0,21.582,0,32.374,0c4.457,0,4.457,0,3.496-4.311c-3.698-16.595-19.195-28.646-36.366-28.279
		c-17.276,0.369-32.168,13.039-35.294,29.958c-0.357,1.938-0.13,2.715,2.18,2.689C127.35,108.128,138.553,108.199,149.757,108.199z
		 M214.563,97.989c6.916,0,13.834-0.086,20.747,0.052c2.034,0.041,2.235-0.535,1.818-2.311
		c-2.873-12.25-10.242-20.569-22.237-24.115c-12.058-3.564-22.706-0.356-31.686,8.443c-0.938,0.921-1.052,1.496-0.07,2.551
		c3.672,3.955,6.487,8.498,8.324,13.567c0.569,1.572,1.359,1.861,2.851,1.844C201.061,97.947,207.813,97.989,214.563,97.989z
		 M62.467,97.76c0.333,0.105,0.488,0.197,0.643,0.197c14.49,0.015,28.98,0.004,43.47,0.063c1.22,0.005,1.5-0.65,1.821-1.523
		c1.899-5.151,4.689-9.786,8.41-13.803c1.092-1.179,0.877-1.78-0.107-2.731c-9.258-8.943-20.133-12.058-32.417-8.075
		C71.835,75.928,64.829,84.973,62.467,97.76z M167.9,49.613c-0.032-9.89-8.035-17.875-17.909-17.87
		c-9.875,0.004-17.861,7.996-17.881,17.891c-0.018,10.007,8.098,18.109,18.027,17.995C160.055,67.515,167.933,59.524,167.9,49.613z
		 M221.325,47.153c0.043-8.462-6.669-15.331-15.058-15.409c-8.508-0.08-15.48,6.805-15.482,15.289
		c-0.002,8.356,6.88,15.276,15.236,15.319C214.377,62.395,221.282,55.536,221.325,47.153z M78.686,47.071
		c0.014,8.404,6.854,15.272,15.219,15.283c8.352,0.009,15.256-6.863,15.314-15.241c0.061-8.469-6.9-15.417-15.399-15.372
		C85.416,31.786,78.672,38.617,78.686,47.071z"/>
</g>
</svg>
