<?xml version="1.0" encoding="utf-8"?>
<!-- Generator: Adobe Illustrator 16.0.0, SVG Export Plug-In . SVG Version: 6.00 Build 0)  -->
<!DOCTYPE svg PUBLIC "-//W3C//DTD SVG 1.1//EN" "http://www.w3.org/Graphics/SVG/1.1/DTD/svg11.dtd">
<svg version="1.1" id="Layer_1" xmlns="http://www.w3.org/2000/svg" xmlns:xlink="http://www.w3.org/1999/xlink" x="0px" y="0px"
	 width="300px" height="300px" viewBox="0 0 300 300" enable-background="new 0 0 300 300" xml:space="preserve">
<g>
	<path fill-rule="evenodd" clip-rule="evenodd" fill="#338A48" d="M216.371,31.183c0.947,0.826,2.241,0.69,3.314,1.216
		c5.098,2.5,8.142,6.57,8.201,12.21c0.175,16.858,0.099,33.72,0.065,50.58c-0.006,2.968-2.089,5.06-4.677,5.014
		c-2.687-0.048-4.568-2.174-4.573-5.362c-0.023-15.933-0.01-31.865-0.012-47.797c0-5.187-1.405-6.58-6.635-6.58
		c-54.989,0-109.978,0-164.968,0c-5.222,0-6.623,1.396-6.623,6.593c-0.001,68.601-0.001,137.203,0,205.803
		c0,5.332,1.361,6.674,6.775,6.674c54.912,0,109.824,0,164.735,0c5.356,0,6.715-1.363,6.716-6.731
		c0-10.441-0.023-20.883,0.012-31.324c0.014-3.823,2.634-6.062,5.894-5.136c2.237,0.636,3.332,2.293,3.34,4.477
		c0.043,11.678,0.165,23.359-0.091,35.032c-0.139,6.303-4.666,11.136-10.818,12.492c-0.314,0.07-0.594,0.094-0.656,0.473
		c-58.172,0-116.343,0-174.515,0c-0.035-0.362-0.295-0.49-0.597-0.587c-4.797-1.529-7.961-4.694-9.491-9.49
		c-0.097-0.302-0.224-0.562-0.586-0.598c0-72.095,0-144.19,0-216.285c1.29-1.333,1.461-3.249,2.519-4.735
		c2.172-3.05,5.306-4.601,8.62-5.94C100.338,31.183,158.354,31.183,216.371,31.183z"/>
	<path fill-rule="evenodd" clip-rule="evenodd" fill="#338A48" d="M268.817,111.941c-12.749,26.216-28.734,50.606-42.872,76.041
		c-5.621,10.114-11.568,20.046-17.337,30.079c-0.823,1.435-1.814,2.65-3.154,3.633c-9.221,6.765-18.425,13.551-27.626,20.34
		c-1.46,1.077-2.946,2.047-4.885,1.598c-2.36-0.546-3.768-2.481-3.518-5.246c0.475-5.233,1.094-10.453,1.669-15.677
		c0.694-6.299,1.441-12.592,2.091-18.895c0.195-1.883,0.688-3.604,1.638-5.247c18.991-32.867,37.967-65.742,56.94-98.619
		c4.18-7.242,10.282-11.047,18.792-10.778c8.357,0.264,16.479,7.31,17.806,15.56c0.067,0.418-0.141,0.959,0.456,1.177
		C268.817,107.919,268.817,109.93,268.817,111.941z M248.803,129.854c-0.239-0.682-0.904-0.825-1.413-1.122
		c-4.797-2.796-9.642-5.511-14.394-8.379c-1.375-0.83-1.934-0.667-2.735,0.728c-14.956,26.003-29.955,51.98-44.998,77.933
		c-0.792,1.365-0.504,1.854,0.762,2.559c4.853,2.697,9.661,5.475,14.427,8.32c1.271,0.758,1.816,0.65,2.586-0.688
		c14.991-26.071,30.039-52.111,45.076-78.155C248.345,130.649,248.576,130.249,248.803,129.854z M248.085,98.406
		c-2.174,0.033-5.055,1.349-6.992,4.232c-1.671,2.487-3.062,5.161-4.622,7.723c-0.455,0.747-0.361,1.15,0.406,1.588
		c5.212,2.977,10.408,5.98,15.598,8.998c0.69,0.4,1.18,0.599,1.664-0.301c1.53-2.845,3.404-5.539,4.635-8.503
		C261.503,105.568,256.534,98.475,248.085,98.406z M181.893,209.886c-0.726,6.456-1.418,12.62-2.155,19.194
		c5.327-3.929,10.363-7.643,15.557-11.474C190.72,214.972,186.46,212.518,181.893,209.886z"/>
	<path fill-rule="evenodd" clip-rule="evenodd" fill="#338A48" d="M172.274,99.04c-0.082,23.547-19.436,42.763-42.907,42.603
		c-23.477-0.162-42.538-19.362-42.486-42.798c0.053-23.505,19.451-42.759,42.914-42.595
		C153.264,56.413,172.357,75.645,172.274,99.04z M156.375,118.666c10.531-14.656,8.024-34.285-5.549-45.483
		c-13.412-11.069-33.125-9.944-45.198,2.519c-12.571,12.979-11.529,32.062-2.753,42.824c3.297-4.614,7.4-8.273,12.519-10.706
		c0.967-0.46,0.732-0.935,0.278-1.599c-2.929-4.285-3.209-9.111-2.61-14.021c0.881-7.218,5.465-12.566,12.641-14.264
		c6.831-1.617,12.63,0.499,17.07,6.018c4.421,5.495,4.847,15.518,0.997,21.893c-0.363,0.603-1.462,1.27-0.006,1.963
		C148.879,110.25,152.998,113.888,156.375,118.666z M129.441,132.395c7.01-0.164,13.389-2.132,19.18-6.058
		c0.975-0.659,0.931-1.081,0.393-1.98c-8.313-13.924-30.67-13.913-38.878,0.016c-0.551,0.935-0.503,1.334,0.431,1.97
		C116.283,130.234,122.593,132.18,129.441,132.395z M137.06,95.622c-0.024-0.002-0.05-0.003-0.075-0.005
		c0-0.617,0.032-1.237-0.005-1.853c-0.226-3.704-2.928-6.6-6.502-6.988c-3.83-0.417-7.04,1.718-8.012,5.459
		c-0.569,2.19-0.555,4.456-0.02,6.645c0.842,3.444,3.846,5.685,7.278,5.619c3.395-0.065,6.373-2.491,7.097-5.886
		C137.028,97.644,136.986,96.62,137.06,95.622z"/>
	<path fill-rule="evenodd" clip-rule="evenodd" fill="#338A48" d="M121.574,165.78c-10.276,0-20.552,0-30.828-0.001
		c-0.695,0-1.396,0.037-2.085-0.03c-2.673-0.257-4.576-2.231-4.538-4.667c0.035-2.351,1.87-4.248,4.42-4.546
		c0.459-0.053,0.926-0.037,1.39-0.037c21.17-0.002,42.34-0.002,63.51-0.002c0.231,0,0.464-0.006,0.695,0.002
		c3.009,0.122,5.074,1.973,5.115,4.58c0.042,2.686-2.084,4.675-5.229,4.688C143.207,165.803,132.391,165.78,121.574,165.78z"/>
	<path fill-rule="evenodd" clip-rule="evenodd" fill="#338A48" d="M121.66,191.771c-10.661,0-21.324,0.019-31.986-0.009
		c-4.111-0.011-6.586-3.112-5.146-6.399c0.914-2.089,2.669-2.874,4.855-2.874c4.249,0,8.498,0,12.747,0c16.689,0,33.378,0,50.067,0
		c0.463,0,0.927-0.005,1.391,0c3.498,0.041,5.729,1.902,5.665,4.727c-0.062,2.752-2.223,4.544-5.605,4.55
		C142.985,191.782,132.323,191.771,121.66,191.771z"/>
	<path fill-rule="evenodd" clip-rule="evenodd" fill="#338A48" d="M121.676,208.48c10.43,0,20.86-0.002,31.292,0.004
		c0.771,0.001,1.555-0.023,2.308,0.107c2.295,0.396,3.937,2.277,3.978,4.459c0.042,2.254-1.671,4.238-4.065,4.619
		c-0.756,0.119-1.54,0.09-2.311,0.09c-20.784,0.005-41.567,0.003-62.351,0.003c-0.31,0-0.619,0.006-0.928,0
		c-3.332-0.064-5.51-1.928-5.476-4.687c0.031-2.753,2.2-4.583,5.566-4.589C100.351,208.469,111.014,208.48,121.676,208.48z"/>
	<path fill-rule="evenodd" clip-rule="evenodd" fill="#338A48" d="M142.097,234.472c3.935,0,7.871-0.03,11.806,0.01
		c3.183,0.032,5.3,1.88,5.351,4.56c0.052,2.754-2.128,4.691-5.438,4.704c-7.794,0.03-15.588,0.027-23.382,0
		c-3.324-0.012-5.5-1.921-5.467-4.676c0.032-2.752,2.197-4.567,5.555-4.592C134.38,234.451,138.238,234.472,142.097,234.472z"/>
	<path fill-rule="evenodd" clip-rule="evenodd" fill="#338A48" d="M73.477,161.128c0.007,2.475-2.042,4.586-4.493,4.634
		c-2.461,0.047-4.769-2.275-4.695-4.727c0.07-2.396,2.297-4.548,4.673-4.517C71.412,156.549,73.471,158.651,73.477,161.128z"/>
	<path fill-rule="evenodd" clip-rule="evenodd" fill="#338A48" d="M68.866,191.746c-2.393-0.029-4.572-2.223-4.578-4.606
		c-0.007-2.382,2.162-4.582,4.56-4.624c2.516-0.044,4.682,2.164,4.629,4.721C73.427,189.694,71.299,191.776,68.866,191.746z"/>
	<path fill-rule="evenodd" clip-rule="evenodd" fill="#338A48" d="M69.003,208.499c2.45,0.061,4.488,2.179,4.474,4.653
		c-0.016,2.567-2.25,4.714-4.767,4.577c-2.412-0.131-4.52-2.396-4.422-4.754C64.387,210.575,66.635,208.442,69.003,208.499z"/>
</g>
</svg>
