<?xml version="1.0" encoding="utf-8"?>
<!-- Generator: Adobe Illustrator 16.0.0, SVG Export Plug-In . SVG Version: 6.00 Build 0)  -->
<!DOCTYPE svg PUBLIC "-//W3C//DTD SVG 1.1//EN" "http://www.w3.org/Graphics/SVG/1.1/DTD/svg11.dtd">
<svg version="1.1" id="Layer_1" xmlns="http://www.w3.org/2000/svg" xmlns:xlink="http://www.w3.org/1999/xlink" x="0px" y="0px"
	 width="300px" height="300px" viewBox="0 0 300 300" enable-background="new 0 0 300 300" xml:space="preserve">
<g>
	<path fill-rule="evenodd" clip-rule="evenodd" fill="#338A48" d="M21.123,248.696c0-75.096,0.007-150.19-0.049-225.285
		c0-1.888,0.427-2.314,2.313-2.313c84.408,0.055,168.816,0.055,253.226,0c1.887-0.001,2.314,0.425,2.313,2.313
		c-0.056,75.095-0.047,150.189-0.047,225.285c-1.205,2.122-3.03,2.699-5.43,2.688c-17.518-0.079-35.035-0.025-52.554-0.072
		c-1.505-0.004-2.724,0.381-3.95,1.206c-5.276,3.548-10.794,6.769-15.855,10.596c-8.04,6.078-16.832,7.557-26.575,5.96
		c-16.775-2.747-32.095,1.874-46.664,9.829c-1.009,0-2.015,0-3.021,0c-7.755-4.724-11.157-12.225-8.941-19.701
		c0.809-2.728,2.362-5.08,3.962-7.468c-1.021-0.53-1.95-0.283-2.833-0.285c-30.08-0.016-60.16-0.028-90.24,0.019
		C24.334,251.471,22.326,251.016,21.123,248.696z M228.49,243.66c13.663,0,26.832-0.056,40,0.056c2.115,0.017,2.57-0.52,2.567-2.595
		c-0.063-56.792-0.064-113.585,0.005-170.378c0.002-2.241-0.563-2.737-2.764-2.736c-78.854,0.063-157.709,0.062-236.565,0.006
		c-2.131-0.002-2.803,0.385-2.8,2.698c0.076,56.875,0.067,113.753,0.023,170.628c-0.001,1.758,0.244,2.397,2.256,2.393
		c32.213-0.077,64.427-0.053,96.64-0.063c0.744,0,1.63,0.123,2.214-0.218c5.88-3.434,12.252-5.533,19.069-7.01
		c-0.457-0.699-0.769-1.182-1.085-1.662c-8-12.178-16.035-24.335-23.957-36.564c-0.966-1.489-1.99-1.896-3.65-1.888
		c-11.827,0.062-23.655,0.045-35.483,0.028c-14.534-0.021-24.683-10.076-24.734-24.631c-0.063-16.861-0.008-33.723-0.02-50.585
		c-0.004-3.644,0.446-7.199,2.048-10.513c4.736-9.789,12.678-14.219,23.428-14.209c42.868,0.041,85.734,0.016,128.603,0.019
		c0.754,0.001,1.509,0.015,2.263,0.056c13.587,0.728,23.072,10.502,23.157,24.143c0.106,17.281,0.099,34.563-0.004,51.843
		c-0.058,9.769-4.628,16.938-13.322,21.363c-1.538,0.783-1.426,1.303-0.581,2.517c2.104,3.023,4.194,6.069,6.067,9.238
		c3.688,6.238,5.165,12.981,4.35,20.244C235.475,232.429,232.879,238.185,228.49,243.66z M117.193,188.694
		c-0.059-1.227-0.793-1.856-1.274-2.592c-5.783-8.824-11.642-17.6-17.37-26.459c-4.514-6.982-3.368-15.406,2.575-20.172
		c6.92-5.551,16.601-4.001,21.698,3.635c7.346,11.004,14.581,22.083,21.818,33.16c0.862,1.322,1.256,1.691,2.552,0.255
		c3.062-3.39,7.033-5.073,11.64-4.96c1.154,0.028,1.737-0.344,2.383-1.286c4.407-6.433,11.827-8.823,18.99-6.076
		c1.35,0.518,2.131,0.416,3.297-0.504c7.722-6.086,17.954-4.334,23.393,3.891c4.112,6.218,8.269,12.405,12.276,18.687
		c0.932,1.46,1.76,1.648,3.208,0.949c6.281-3.028,9.564-8.03,9.598-14.958c0.078-17.111,0.056-34.224,0.015-51.337
		c-0.023-9.667-6.768-16.582-16.416-16.594c-43.702-0.057-87.405-0.052-131.107-0.004c-9.655,0.011-16.438,6.905-16.458,16.545
		c-0.039,17.112-0.043,34.224,0.001,51.335c0.024,9.627,6.879,16.426,16.519,16.479c6.627,0.037,13.254,0.008,19.88,0.008
		C108.649,188.694,112.89,188.694,117.193,188.694z M150.033,60.347c39.506,0,79.011-0.014,118.517,0.043
		c1.94,0.002,2.533-0.438,2.508-2.458c-0.117-8.89-0.1-17.782-0.009-26.671c0.019-1.739-0.4-2.254-2.188-2.228
		c-7.297,0.105-14.594,0.044-21.892,0.044c-71.796,0-143.595,0.009-215.392-0.046c-2.021-0.001-2.678,0.378-2.642,2.549
		c0.141,8.636,0.132,17.278,0.007,25.916c-0.031,2.215,0.442,2.916,2.827,2.911C71.19,60.323,110.612,60.347,150.033,60.347z
		 M182.387,261.951c4.389,0.158,8.231-1.278,11.816-3.676c7.521-5.024,15.088-9.979,22.6-15.016
		c12.476-8.362,15.436-22.721,7.229-35.323c-7.77-11.931-15.621-23.809-23.464-35.691c-3.802-5.762-10.209-5.805-14.259-0.141
		c-1.777,2.486-3.809,2.853-6.197,1.116c-5.787-4.205-10.667-2.791-13.492,3.922c-0.889,2.11-2.328,3.193-4.71,2.752
		c-6.843-1.267-9.644,0.515-11.19,7.188c-0.402,1.731-1.298,2.89-3.064,3.229c-1.732,0.334-3.135-0.253-4.146-1.715
		c-0.286-0.413-0.559-0.835-0.834-1.255c-8.29-12.592-16.577-25.186-24.871-37.774c-0.737-1.119-1.439-2.274-2.295-3.296
		c-1.82-2.177-4.672-2.913-7.281-2.005c-2.624,0.911-4.326,3.231-4.569,6.041c-0.204,2.345,0.864,4.192,2.079,6.033
		c11.665,17.691,23.316,35.391,34.972,53.087c5.941,9.022,11.903,18.033,17.816,27.076c2.134,3.264,1.099,5.827-2.638,6.772
		c-0.728,0.184-1.47,0.335-2.214,0.425c-4.258,0.51-8.398,1.499-12.395,3.061c-5.992,2.341-11.599,5.28-15.664,10.489
		c-2.58,3.306-3.296,6.853-1.349,10.78c1.011,2.038,1.968,2.748,4.409,1.588c13.251-6.296,27.004-10.475,41.954-8.848
		C174.546,261.196,178.467,261.56,182.387,261.951z"/>
	<path fill-rule="evenodd" clip-rule="evenodd" fill="#338A48" d="M191.771,128.139c0,1.814,0.005,3.126-0.001,4.439
		c-0.02,3.934-1.367,5.318-5.266,5.322c-11.486,0.013-22.975,0.064-34.459-0.05c-2.077-0.02-2.691,0.45-2.592,2.573
		c0.192,4.015,0.162,8.051,0.01,12.069c-0.072,1.955,0.252,3.053,2.489,2.613c0.4-0.078,0.846-0.039,1.253,0.037
		c2.154,0.406,3.513,1.654,3.538,3.9c0.028,2.256-1.291,3.721-3.47,3.903c-2.664,0.221-5.371,0.215-8.037,0.003
		c-2.188-0.175-3.505-1.651-3.52-3.887c-0.053-8.384-0.09-16.769,0.012-25.151c0.033-2.761,1.628-3.954,4.749-3.957
		c11.654-0.019,23.309-0.046,34.963,0.032c1.857,0.012,2.678-0.299,2.514-2.399c-0.209-2.666-0.066-5.362-0.042-8.045
		c0.019-1.824,0.721-3.241,2.52-3.957c1.687-0.672,3.125-0.199,4.383,0.966c9.656,8.943,19.32,17.88,28.943,26.858
		c2.135,1.994,2.128,4.083,0.065,6.087c-2.043,1.985-4.144,3.918-6.285,5.794c-1.935,1.693-4.077,1.673-5.605,0.081
		c-1.569-1.635-1.408-3.953,0.403-5.81c3.115-3.192,3.113-3.19-0.093-6.161C202.867,138.423,197.494,133.443,191.771,128.139z"/>
	<path fill-rule="evenodd" clip-rule="evenodd" fill="#338A48" d="M236.9,44.637c0.011,2.08-1.716,3.787-3.846,3.805
		c-2.117,0.018-3.878-1.64-3.947-3.717c-0.073-2.162,1.778-4.01,3.961-3.958C235.148,40.817,236.889,42.574,236.9,44.637z"/>
	<path fill-rule="evenodd" clip-rule="evenodd" fill="#338A48" d="M211.537,48.437c-2.126,0.027-3.915-1.648-3.965-3.71
		c-0.053-2.146,1.828-3.992,4.025-3.953c2.126,0.039,3.815,1.756,3.813,3.873C215.408,46.735,213.696,48.41,211.537,48.437z"/>
	<path fill-rule="evenodd" clip-rule="evenodd" fill="#338A48" d="M258.301,44.603c0.003,2.109-1.674,3.799-3.798,3.83
		c-2.262,0.032-3.994-1.693-3.941-3.925c0.05-2.096,1.796-3.76,3.909-3.729C256.588,40.811,258.3,42.52,258.301,44.603z"/>
</g>
</svg>
