<?xml version="1.0" encoding="utf-8"?>
<!-- Generator: Adobe Illustrator 16.0.0, SVG Export Plug-In . SVG Version: 6.00 Build 0)  -->
<!DOCTYPE svg PUBLIC "-//W3C//DTD SVG 1.1//EN" "http://www.w3.org/Graphics/SVG/1.1/DTD/svg11.dtd">
<svg version="1.1" id="Layer_1" xmlns="http://www.w3.org/2000/svg" xmlns:xlink="http://www.w3.org/1999/xlink" x="0px" y="0px"
	 width="300px" height="300px" viewBox="0 0 300 300" enable-background="new 0 0 300 300" xml:space="preserve">
<g>
	<path fill="#338A48" d="M137.209,257.879c-12.18,0.029-24.215,0.121-34.382,0.121H91.128l-11.696-0.088l-10.063-0.042
		c-2.617,0-5.658-0.117-8.725-0.82c-14.793-3.4-24.365-15.738-24.384-31.417c-0.03-24.351-0.022-49.114-0.018-73.056l0.005-20.212
		c0.003-4.56-0.01-9.121-0.021-13.679c-0.025-11.314-0.054-23.013,0.11-34.536c0.206-14.699,10.156-26.615,24.761-29.649
		c3.043-0.632,5.97-0.714,8.177-0.714c1.142,0,2.283,0.025,3.425,0.051c1.076,0.024,2.151,0.048,3.225,0.048
		c0.647,0,1.292-0.009,1.937-0.033c0.095-0.004,0.187-0.005,0.275-0.005c2.082,0,3.385,0.907,4.109,1.669
		c1.593,1.67,1.496,3.688,1.46,4.447l-0.005,0.129c0.008,0.927,0.002,1.882-0.003,2.838c-0.008,1.465-0.015,2.85,0.025,4.235
		c0.069,2.417,1.983,4.382,4.267,4.383c2.327,0,4.208-1.92,4.285-4.373c0.059-1.949,0.104-4.25-0.011-6.544
		c-0.038-0.768-0.158-3.113,1.596-4.958c1.761-1.854,4.124-1.854,4.898-1.854c13.351,0.026,26.671,0.038,39.993,0.038
		c12.96,0,25.923-0.011,38.881-0.032c0.772,0,3.059,0,4.787,1.774c1.725,1.771,1.666,4.023,1.646,4.764l-0.014,0.505
		c-0.066,2.5-0.13,4.862,0.161,7.064c0.263,1.996,2.082,3.622,4.058,3.622c0.071,0,0.145-0.002,0.217-0.007
		c2.359-0.152,4.006-1.871,4.096-4.279c0.066-1.725,0.249-3.453,0.233-5.284C192.813,61.41,193,60.836,193,60.263v-0.129
		c0-0.89-0.221-2.976,1.429-4.639c0.744-0.752,1.978-1.648,4.091-1.648c0.074,0,0.101,0.001,0.178,0.003
		c0.515,0.015,1.006,0.021,1.526,0.021c1.108,0,2.209-0.027,3.32-0.054c1.186-0.029,2.363-0.056,3.547-0.056
		c2.967,0,5.263,0.18,7.446,0.584c15.225,2.816,25.535,15.434,25.662,31.397c0.044,5.28,0.032,10.637,0.024,15.819
		c-0.008,4.049-0.017,8.099,0.001,12.148c0.011,2.437,1.127,5.04,4.229,5.04c2.566-0.007,4.298-1.944,4.318-4.821l0.038-4.468
		c0.071-8.294,0.146-16.871-0.085-25.257c-0.532-19.659-14.061-35.124-33.663-38.482c-2.154-0.369-4.54-0.541-7.509-0.541
		c-1.805,0-3.678,0.063-5.49,0.123l-1.547,0.05c-0.168,0.005-0.332,0.007-0.489,0.007c-0.956,0-3.861,0-5.87-2.261
		c-2.021-2.278-1.667-5.264-1.55-6.246c0.12-0.994,0.079-2.152,0.038-3.377c-0.015-0.413-0.027-1.109-0.038-1.52
		c-0.048-2.237-1.17-4.957-4.167-4.957h-0.059c-2.506,0-4.205,2.06-4.333,4.807c-0.095,1.979-0.153,3.753,0,5.288
		c0.103,1.034,0.375,4.183-1.575,6.337C180.508,45.602,177.62,46,176.672,46h-0.155c-6.44,0-13.32-0.418-22.312-0.418
		c-3.791,0-7.58-0.159-11.37-0.155c-3.796,0.005-7.588-0.072-11.381-0.072c-2.79,0-5.581-0.046-8.372-0.05
		c-2.783-0.004-5.569,0.306-8.355,0.306c-6.147,0-10.87,0.389-15.32,0.389h-0.173c-0.88,0-3.548-0.335-5.419-2.386
		c-1.868-2.045-1.626-4.848-1.547-5.714c0.125-1.334,0.086-2.858,0.046-4.383c-0.011-0.429-0.021-0.898-0.03-1.326
		c-0.049-2.721-1.76-4.581-4.254-4.593c-2.534,0-4.257,1.784-4.313,4.454l-0.026,1.017c-0.04,1.718-0.081,3.339,0.041,4.875
		c0.069,0.835,0.272,3.376-1.572,5.374c-1.855,2.011-4.493,2.01-5.36,2.01c-1.341-0.004-2.633-0.029-3.928-0.053
		c-1.363-0.026-2.727-0.052-4.091-0.052c-2.926,0-6.372,0.103-9.754,0.867C40.385,50.3,27.794,65.935,27.694,84.997
		c-0.084,16.208,0.604,32.697,0.622,48.642c0.008,7.3,0.684,14.598,0.684,21.898v19.645c0,16.698-0.662,33.396-0.678,50.095
		c-0.006,4.725,0.101,8.502,1.051,11.887c4.963,17.7,20.076,29.172,38.762,29.227c8.979,0.025,17.875,0.034,26.854,0.034
		c10.039,0,20.034-0.01,30.073-0.021l11.812-0.013c0.976-0.001,1.795-0.084,2.453-0.247c1.256-0.31,2.271-1.188,2.798-2.411
		c0.52-1.207,0.46-2.488-0.162-3.59C141.159,258.717,140.082,257.879,137.209,257.879z"/>
	<path fill="#338A48" d="M222.476,207.834l4.363-0.742c16.269-2.767,28.06-16.849,26.839-32.06
		c-1.352-16.875-14.105-29.253-30.322-29.429l-0.334-0.002c-15.522,0-29.344,12.126-30.813,27.031
		c-1.697,17.234,8.975,31.094,26.556,34.485L222.476,207.834z M200.63,176.2c-0.025-5.995,2.273-11.44,6.477-15.669
		c4.183-4.205,9.765-6.435,15.713-6.441c5.972,0,11.582,2.39,15.817,6.645c4.221,4.24,6.533,9.486,6.505,15.398
		C245.088,188.379,235.076,198,222.824,198h-0.119C210.588,198,200.684,188.358,200.63,176.2z"/>
	<path fill="#338A48" d="M232.26,217.307c-0.282-0.062-0.724-0.095-1.189-0.131c-1.52-0.114-3.818-0.289-6.043-1.812l-2.883-1.973
		l-0.307,0.521c-1.582,2.698-4.266,2.885-5.148,2.945l-0.155,0.012c-17.288,2.437-30.044,11.068-38.963,26.385
		c-2.816,4.834-5.261,10.513-4.093,16.361c1.593,8.006,8.066,13.385,16.893,13.385h4.542c18.249,0,37.544-0.436,60.727-0.515
		c5.949-0.021,11.087-2.78,14.095-7.228c2.926-4.322,3.393-9.957,1.277-15.287C263.929,232.122,251.254,221.369,232.26,217.307z
		 M262.563,260.229c-2.197,3.284-6.387,3.527-7.965,3.527c-5.314,0.002-10.626,0.244-15.939,0.244h-7.925h-2.937l0,0h-4.987h-9.507
		l-9.51-0.182c-4.351,0-8.704-0.092-13.055-0.097c-1.363-0.003-5.518-0.055-7.73-3.331c-2.197-3.259-0.678-6.584-0.178-7.828
		C189.278,236.496,205.241,226,222.552,226h0.242c17.503,0,33.108,9.942,39.764,26.077
		C263.158,253.54,264.762,256.942,262.563,260.229z"/>
	<path fill="#338A48" d="M79.723,177.821c8.676,0.023,17.347,0.03,26.022,0.03c6.112,0,12.224-0.003,18.339-0.007l13.441-0.006
		c1.213,0,2.115-0.213,2.84-0.669c1.682-1.06,2.418-2.893,1.924-4.789c-0.484-1.852-2.011-3.062-3.892-3.076
		c-3.668-0.031-7.651-0.046-12.538-0.046c-2.834,0-5.668,0.365-8.502,0.37c-2.842,0.006-5.682,0.371-8.521,0.371H104v-0.74
		c-1-0.001-2.563-0.003-3.91-0.004c-2.867-0.003-5.668-0.005-8.536-0.005c-3.935,0-7.841,0.005-11.778,0.021
		c-2.357,0.01-4.883,1.1-4.937,4.132c-0.023,1.193,0.38,2.237,1.147,3.019C76.863,177.32,78.195,177.817,79.723,177.821z"/>
	<path fill="#338A48" d="M86.65,130.53c1.822,0,3.642-0.004,5.461-0.008c1.777-0.002,3.551-0.008,5.327-0.008
		c1.8,0,3.597,0.004,5.396,0.008c1.795,0.002,3.587,0.006,5.381,0.006c2.294,0,4.59-0.006,6.887-0.024
		c3.035-0.023,4.868-1.576,4.896-4.153c0.015-1.222-0.372-2.27-1.119-3.029c-0.859-0.875-2.197-1.361-3.765-1.369
		c-5.918-0.031-11.88-0.046-17.722-0.046c-5.888,0-11.818,0.015-17.629,0.046c-1.568,0.007-2.914,0.502-3.788,1.392
		c-0.747,0.762-1.134,1.797-1.119,2.995c0.031,2.505,1.963,4.142,4.922,4.165C82.07,130.525,84.358,130.53,86.65,130.53z"/>
</g>
</svg>
