<?xml version="1.0" encoding="utf-8"?>
<!-- Generator: Adobe Illustrator 16.0.0, SVG Export Plug-In . SVG Version: 6.00 Build 0)  -->
<!DOCTYPE svg PUBLIC "-//W3C//DTD SVG 1.1//EN" "http://www.w3.org/Graphics/SVG/1.1/DTD/svg11.dtd">
<svg version="1.1" id="Layer_1" xmlns="http://www.w3.org/2000/svg" xmlns:xlink="http://www.w3.org/1999/xlink" x="0px" y="0px"
	 width="300px" height="300px" viewBox="0 0 300 300" enable-background="new 0 0 300 300" xml:space="preserve">
<g>
	<path fill-rule="evenodd" clip-rule="evenodd" fill="#338A48" d="M251.85,269.056c-67.9,0-135.799,0-203.697,0
		c-1.703-1.28-2.874-2.775-2.03-5.073c0.84-2.291,2.741-2.433,4.766-2.375c1.393,0.04,2.794-0.077,4.18,0.03
		c1.413,0.11,1.975-0.198,1.964-1.827c-0.081-11.304-0.063-22.608-0.018-33.913c0.005-1.307-0.286-1.756-1.696-2.056
		c-11.845-2.509-19.567-9.649-23.275-21.156c-0.364-1.13-0.237-2.419-1.099-3.389c0-47.747,0-95.492,0-143.239
		c0.822-0.371,0.549-1.214,0.694-1.817c2.084-8.631,7.02-15.079,14.647-19.567c3.197-1.883,6.805-2.545,10.238-3.729
		c62.162,0,124.326,0,186.49,0c0.154,0.138,0.296,0.372,0.467,0.399c12.585,2.036,20.51,9.405,24.484,21.327
		c0.424,1.271,0.263,2.701,1.092,3.852c0,47.592,0,95.184,0,142.774c-0.824,0.541-0.643,1.496-0.848,2.255
		c-3.308,12.098-11.129,19.496-23.293,22.251c-1.56,0.354-1.949,0.806-1.938,2.323c0.068,9.755,0.028,19.511,0.043,29.266
		c0.002,1.997-0.664,4.611,0.336,5.823c1.052,1.274,3.766,0.352,5.749,0.376c2.022,0.025,3.925,0.096,4.769,2.387
		C254.72,266.277,253.54,267.769,251.85,269.056z M150.115,38.386c-29.527,0-59.056-0.015-88.584,0.006
		c-13.483,0.009-23.134,9.65-23.14,23.125c-0.018,44.1-0.003,88.199-0.015,132.298c0,2.103,0.173,4.176,0.695,6.211
		c2.642,10.292,11.404,16.933,22.442,16.937c42.396,0.015,84.788,0.007,127.182,0.007c0.775,0,1.553-0.036,2.326,0.018
		c2.229,0.158,3.622,1.632,3.592,3.755c-0.027,2.115-1.435,3.52-3.697,3.656c-0.693,0.042-1.394,0.012-2.091,0.012
		c-40.689,0-81.378,0.016-122.065-0.048c-1.928-0.003-2.401,0.437-2.384,2.375c0.106,10.849,0.106,21.701,0.002,32.55
		c-0.02,1.935,0.447,2.381,2.379,2.376c35.884-0.066,71.768-0.048,107.65-0.048c19.686,0,39.371,0,59.059-0.001
		c1.113,0,2.181,0.37,2.161-1.619c-0.115-11.314-0.077-22.631-0.027-33.947c0.006-1.302-0.326-1.699-1.654-1.669
		c-3.95,0.088-7.903,0.034-11.856,0.03c-3.465-0.002-5.057-1.15-5.094-3.663c-0.038-2.529,1.594-3.772,4.982-3.775
		c5.27-0.005,10.541,0.001,15.811-0.002c14.43-0.007,23.824-9.405,23.824-23.852c0.004-43.634,0.004-87.268,0-130.902
		c0-14.415-9.421-23.827-23.841-23.828C208.553,38.384,179.335,38.386,150.115,38.386z"/>
	<path fill-rule="evenodd" clip-rule="evenodd" fill="#338A48" d="M149.893,209.528c-29.217,0-58.437,0.002-87.654,0
		c-10.358-0.002-16.412-6.071-16.412-16.457c0-43.634-0.002-87.267,0-130.9c0-10.248,6.077-16.34,16.288-16.345
		c4.263-0.001,8.525-0.016,12.786,0.005c2.813,0.015,4.356,1.339,4.378,3.679c0.024,2.349-1.531,3.734-4.306,3.75
		c-4.572,0.026-9.146-0.011-13.717,0.013c-4.867,0.025-7.981,3.118-7.981,7.991c-0.011,44.252-0.011,88.505-0.003,132.758
		c0.003,5.01,3.087,8.059,8.151,8.061c59.054,0.007,118.109,0.007,177.165,0c5.154-0.002,8.141-3.06,8.143-8.305
		c0.006-44.099,0.006-88.197-0.002-132.295c0-5.189-3.038-8.211-8.23-8.212c-43.71-0.006-87.42-0.003-131.131-0.004
		c-0.775,0-1.555,0.045-2.324-0.03c-2.071-0.202-3.399-1.691-3.383-3.719c0.018-2.028,1.354-3.475,3.44-3.666
		c0.694-0.063,1.395-0.025,2.093-0.025c43.557-0.001,87.11-0.002,130.667,0c10.234,0,16.312,6.078,16.313,16.322
		c0.002,43.71,0.002,87.421,0,131.132c-0.002,10.084-6.131,16.245-16.162,16.245C208.639,209.53,179.265,209.528,149.893,209.528z"
		/>
	<path fill-rule="evenodd" clip-rule="evenodd" fill="#338A48" d="M112.795,177.875c0.24-3.86-0.524-8.619,0.398-13.295
		c1.814-9.186,7.236-15.309,16.243-17.83c8.632-2.416,17.376-4.43,26.088-6.554c1.393-0.338,2.258-0.812,1.921-2.406
		c-0.047-0.223-0.025-0.466-0.004-0.696c0.438-4.418-0.273-8.249-3.487-11.848c-2.281-2.557-3.8-5.455-7.147-7.269
		c-4.809-2.607-6.72-11.394-4.151-16.164c0.51-0.95,0.411-1.77,0.293-2.664c-2.757-21.14,13.024-38.865,34.224-38.428
		c19.539,0.402,34.881,18.557,32.011,37.906c-0.21,1.421-0.013,2.6,0.671,3.948c2.625,5.172-1.277,14.586-6.885,16.785
		c-1.313,0.515-2.175,1.184-2.729,2.509c-1.021,2.444-2.54,4.623-4.38,6.516c-0.949,0.975-1.305,1.956-1.236,3.284
		c0.101,2.01,0.167,4.042-0.02,6.04c-0.146,1.582,0.506,2.106,1.892,2.444c8.181,2,16.342,4.077,24.518,6.105
		c11.608,2.879,18.268,11.354,18.28,23.318c0.009,6.82,0.011,13.641-0.002,20.46c-0.006,3.002-1.303,4.577-3.712,4.582
		c-2.412,0.004-3.721-1.575-3.726-4.569c-0.013-6.975,0.011-13.95-0.008-20.926c-0.023-7.874-4.481-13.565-12.095-15.479
		c-8.021-2.016-16.052-3.992-24.06-6.061c-1.199-0.31-1.632-0.258-2.109,1.079c-2.782,7.81-9.401,12.448-17.49,12.463
		c-8.092,0.016-14.82-4.664-17.572-12.365c-0.416-1.164-0.66-1.566-2.031-1.208c-8.228,2.142-16.513,4.063-24.732,6.231
		c-7.101,1.873-11.475,7.696-11.509,15.024c-0.034,7.207,0.018,14.415-0.021,21.621c-0.017,3.325-2.656,5.113-5.423,3.771
		c-1.52-0.737-2.017-2.023-2.012-3.616C112.802,186.634,112.795,182.683,112.795,177.875z M176.077,129.671
		c1.231-0.108,2.482-0.112,3.69-0.342c8.211-1.563,12.696-7.096,15.277-14.56c0.411-1.194,0.68-1.777,2.186-1.317
		c2.052,0.626,3.917-0.57,5.01-2.763c1.131-2.271,1.092-4.692-0.527-5.732c-1.438-0.923-1.24-1.821-0.807-3.037
		c0.256-0.724,0.374-1.499,0.612-2.231c0.578-1.783-0.045-3.107-1.425-4.26c-1.366-1.143-2.793-1.644-4.473-0.805
		c-2,0.998-3.984,2.029-5.979,3.042c-9.59,4.881-19.074,5.156-28.459-0.582c-1.443-0.883-2.986-1.614-4.505-2.368
		c-1.72-0.854-3.198-0.494-4.681,0.745c-1.506,1.259-1.979,2.644-1.361,4.474c0.271,0.803,0.449,1.637,0.693,2.451
		c0.3,1.002,0.35,1.656-0.79,2.44c-1.973,1.354-1.669,3.49-0.899,5.47c0.852,2.195,2.973,3.849,4.77,3.236
		c2.157-0.736,2.367,0.466,2.879,1.91C160.532,124.578,167.229,129.598,176.077,129.671z M150.973,87.375
		c3.316-1.089,6.229-0.636,9.028,0.729c1.457,0.709,2.952,1.368,4.314,2.233c7.793,4.947,15.554,4.867,23.331,0.005
		c0.395-0.247,0.799-0.471,1.206-0.693c3.776-2.06,7.6-3.895,12.149-2.338c-2.515-10.918-12.565-18.81-24.096-19.115
		C164.563,67.87,154.392,75.281,150.973,87.375z M164.926,134.89c0,3.058-0.176,5.925,0.036,8.763
		c0.431,5.756,5.544,10.182,11.366,10.058c5.691-0.122,10.516-4.7,10.83-10.393c0.131-2.316-0.03-4.649,0.068-6.969
		c0.063-1.479-0.456-1.44-1.598-0.992c-4.117,1.616-8.414,1.979-12.784,1.563C170.159,136.663,167.616,135.727,164.926,134.89z"/>
	<path fill-rule="evenodd" clip-rule="evenodd" fill="#338A48" d="M97.916,112.332c0,10.689,0.016,21.379-0.021,32.069
		c-0.004,1.236,0.305,2.081,1.281,2.972c7.967,7.255,8.264,19.214,0.761,26.921c-7.161,7.356-19.287,7.321-26.452-0.077
		c-7.459-7.705-7.09-19.674,0.928-26.904c1.02-0.919,1.188-1.82,1.188-3.017c-0.017-21.146-0.013-42.293-0.013-63.44
		c0-4.153,1.092-5.264,5.171-5.267c4.261-0.004,8.521-0.022,12.781,0.006c3.008,0.021,4.363,1.389,4.368,4.435
		C97.928,90.797,97.916,101.564,97.916,112.332z M90.4,116.292c0.027,0,0.058,0,0.085,0c0-9.374,0.007-18.746-0.002-28.119
		c-0.004-5.146-0.017-5.048-5.104-5.19c-1.908-0.053-2.412,0.402-2.403,2.361c0.107,20.062,0.075,40.125,0.154,60.187
		c0.013,2.954-0.589,5.127-3.306,7.03c-5.34,3.742-5.646,11.465-1.094,16.372c4.247,4.58,11.927,4.518,16.164-0.133
		c4.482-4.924,4.01-12.673-1.36-16.357c-2.489-1.707-3.175-3.674-3.157-6.406C90.437,136.122,90.4,126.206,90.4,116.292z"/>
	<path fill-rule="evenodd" clip-rule="evenodd" fill="#338A48" d="M194.518,246.733c-8.445,0-16.892,0.015-25.336-0.009
		c-2.981-0.009-4.785-1.934-4.198-4.468c0.525-2.267,2.125-2.988,4.331-2.982c10.925,0.039,21.852,0.018,32.775,0.018
		c5.812,0,11.623-0.004,17.435,0.002c3.238,0.005,4.821,1.209,4.854,3.67c0.034,2.472-1.581,3.765-4.755,3.768
		C211.254,246.737,202.887,246.733,194.518,246.733z"/>
	<path fill-rule="evenodd" clip-rule="evenodd" fill="#338A48" d="M82.945,254.16c-6.166-0.042-11.16-5.167-11.063-11.354
		c0.095-6.062,5.126-10.965,11.237-10.951c6.051,0.015,11.074,5.063,11.068,11.12C94.179,249.173,89.125,254.2,82.945,254.16z
		 M83.057,246.701c2.1-0.015,3.674-1.575,3.679-3.643c0.002-2.029-1.609-3.701-3.616-3.752c-2.104-0.051-3.826,1.676-3.793,3.803
		C79.359,245.176,80.958,246.716,83.057,246.701z"/>
	<path fill-rule="evenodd" clip-rule="evenodd" fill="#338A48" d="M123.951,243.009c-0.026,6.196-5.094,11.209-11.276,11.151
		c-6.07-0.057-11.035-5.078-11.031-11.156c0.005-6.171,5.068-11.178,11.275-11.148C118.964,231.885,123.975,236.951,123.951,243.009
		z M116.498,242.979c-0.04-2.027-1.688-3.666-3.694-3.672c-2.102-0.006-3.792,1.759-3.712,3.881c0.074,2.052,1.722,3.57,3.809,3.513
		C114.999,246.642,116.539,245.049,116.498,242.979z"/>
	<path fill-rule="evenodd" clip-rule="evenodd" fill="#338A48" d="M153.715,243.013c-0.026,6.196-5.097,11.205-11.278,11.147
		c-6.07-0.059-11.034-5.081-11.029-11.158c0.007-6.174,5.07-11.177,11.278-11.146C148.73,231.887,153.74,236.955,153.715,243.013z
		 M142.659,239.307c-2.014-0.056-3.708,1.529-3.804,3.561c-0.099,2.064,1.398,3.709,3.486,3.831c2.177,0.125,3.912-1.479,3.92-3.628
		C146.273,241.04,144.666,239.363,142.659,239.307z"/>
	<path fill-rule="evenodd" clip-rule="evenodd" fill="#338A48" d="M142.559,183.611c-0.002,2.399,0.049,4.802-0.018,7.2
		c-0.066,2.388-1.567,3.847-3.768,3.809c-2.111-0.038-3.601-1.444-3.631-3.706c-0.068-4.955-0.066-9.911-0.006-14.866
		c0.029-2.371,1.583-3.844,3.766-3.811c2.159,0.032,3.592,1.525,3.646,3.94C142.604,178.654,142.561,181.134,142.559,183.611z"/>
	<path fill-rule="evenodd" clip-rule="evenodd" fill="#338A48" d="M209.529,183.483c-0.002-2.47-0.047-4.941,0.011-7.41
		c0.058-2.436,1.444-3.813,3.697-3.816c2.26-0.005,3.688,1.369,3.717,3.794c0.054,4.939,0.058,9.881-0.009,14.82
		c-0.03,2.35-1.615,3.81-3.803,3.749c-2.101-0.061-3.527-1.466-3.594-3.728C209.476,188.425,209.531,185.953,209.529,183.483z"/>
	<path fill-rule="evenodd" clip-rule="evenodd" fill="#338A48" d="M94.166,49.59c-0.025,2.11-1.581,3.66-3.683,3.668
		c-2.191,0.008-3.8-1.671-3.708-3.869c0.09-2.11,1.686-3.604,3.796-3.553C92.671,45.887,94.189,47.476,94.166,49.59z"/>
	<path fill-rule="evenodd" clip-rule="evenodd" fill="#338A48" d="M68.138,94.16c0.015,2.11-1.508,3.679-3.62,3.729
		c-2.204,0.052-3.843-1.58-3.798-3.782c0.041-2.102,1.62-3.625,3.733-3.609C66.567,90.512,68.123,92.06,68.138,94.16z"/>
	<path fill-rule="evenodd" clip-rule="evenodd" fill="#338A48" d="M64.449,112.768c-2.112,0.013-3.688-1.517-3.729-3.617
		c-0.043-2.11,1.459-3.696,3.571-3.772c2.197-0.08,3.868,1.539,3.847,3.73C68.119,111.211,66.562,112.756,64.449,112.768z"/>
	<path fill-rule="evenodd" clip-rule="evenodd" fill="#338A48" d="M68.138,124.056c-0.052,2.1-1.639,3.62-3.753,3.594
		c-2.195-0.026-3.778-1.717-3.662-3.914c0.108-2.082,1.756-3.564,3.863-3.475C66.696,120.35,68.191,121.947,68.138,124.056z"/>
	<path fill-rule="evenodd" clip-rule="evenodd" fill="#338A48" d="M64.512,142.532c-2.11,0.047-3.721-1.462-3.792-3.555
		c-0.075-2.111,1.403-3.724,3.509-3.833c2.193-0.114,3.896,1.483,3.909,3.668C68.15,140.92,66.623,142.486,64.512,142.532z"/>
	<path fill-rule="evenodd" clip-rule="evenodd" fill="#338A48" d="M205.873,224.4c-2.112,0.034-3.693-1.474-3.762-3.586
		c-0.07-2.202,1.553-3.863,3.747-3.836c2.097,0.026,3.642,1.596,3.646,3.703C209.508,222.796,207.973,224.366,205.873,224.4z"/>
	<path fill-rule="evenodd" clip-rule="evenodd" fill="#338A48" d="M90.462,161.177c-0.011,2.104-1.56,3.656-3.671,3.679
		c-2.202,0.023-3.822-1.632-3.749-3.833c0.068-2.095,1.671-3.6,3.787-3.557S90.471,159.068,90.462,161.177z"/>
</g>
</svg>
