<?xml version="1.0" encoding="utf-8"?>
<!-- Generator: Adobe Illustrator 16.0.0, SVG Export Plug-In . SVG Version: 6.00 Build 0)  -->
<!DOCTYPE svg PUBLIC "-//W3C//DTD SVG 1.1//EN" "http://www.w3.org/Graphics/SVG/1.1/DTD/svg11.dtd">
<svg version="1.1" id="Layer_1" xmlns="http://www.w3.org/2000/svg" xmlns:xlink="http://www.w3.org/1999/xlink" x="0px" y="0px"
	 width="300px" height="300px" viewBox="0 0 300 300" enable-background="new 0 0 300 300" xml:space="preserve">
<g>
	<path fill-rule="evenodd" clip-rule="evenodd" fill="#338A48" d="M28.111,250.466c0-66.975,0-133.95,0-200.926
		c2.661-6.369,7.705-7.687,14.156-7.673c72.385,0.146,144.77,0.092,217.154,0.093c0.951,0,1.907-0.042,2.854,0.035
		c3.647,0.296,6.424,1.981,8.292,5.181c0.534,0.915,0.47,2.089,1.321,2.841c0,66.975,0,133.951,0,200.925
		c-2.787,6.089-7.816,7.202-14.02,7.191c-72.419-0.132-144.838-0.086-217.257-0.086c-0.952,0-1.909,0.044-2.854-0.035
		c-4.043-0.337-6.985-2.293-8.732-6.005C28.774,251.475,28.842,250.723,28.111,250.466z M149.975,85.786
		c-37.848,0-75.694,0.022-113.541-0.057c-2.176-0.004-2.561,0.603-2.559,2.633c0.058,52.605,0.045,105.21,0.046,157.813
		c0,4.852,1.235,6.107,6.009,6.107c73.393,0.002,146.786,0.002,220.179,0c4.66,0,5.964-1.291,5.966-5.913
		c0.002-52.684-0.015-105.368,0.055-158.052c0.003-2.135-0.542-2.585-2.613-2.581C225.668,85.804,187.82,85.786,149.975,85.786z
		 M150.036,80.285c37.836,0,75.672-0.02,113.509,0.054c2.145,0.004,2.62-0.559,2.586-2.629c-0.129-7.93-0.052-15.864-0.053-23.795
		c-0.001-4.978-1.211-6.194-6.16-6.195c-36.25,0-72.5,0-108.749,0c-37.122,0-74.246,0.003-111.368-0.004
		c-4.762-0.001-5.881,1.072-5.883,5.801c-0.003,8.091,0.1,16.184-0.066,24.271c-0.045,2.242,0.697,2.543,2.675,2.54
		C74.363,80.271,112.199,80.285,150.036,80.285z"/>
	<path fill-rule="evenodd" clip-rule="evenodd" fill="#338A48" d="M149.971,145.736c-29.031,0-58.063,0-87.095-0.001
		c-3.987,0-4.51-0.521-4.511-4.535c-0.004-10.073-0.009-20.147,0.002-30.221c0.005-3.449,0.715-4.143,4.221-4.143
		c58.301-0.003,116.602-0.003,174.902,0c3.431,0,4.127,0.718,4.131,4.23c0.008,10.232,0.008,20.465,0,30.697
		c-0.003,3.323-0.668,3.969-4.08,3.969C208.351,145.737,179.16,145.736,149.971,145.736z M150.127,112.6
		c-27.848,0-55.696,0.021-83.543-0.046c-1.959-0.004-2.527,0.447-2.493,2.458c0.127,7.614,0.091,15.232,0.018,22.848
		c-0.016,1.541,0.199,2.172,1.994,2.17c56.012-0.052,112.025-0.052,168.037-0.001c1.778,0.002,2.029-0.604,2.015-2.165
		c-0.078-7.537-0.129-15.076,0.022-22.61c0.045-2.223-0.608-2.708-2.745-2.703C205.664,112.624,177.896,112.6,150.127,112.6z"/>
	<path fill-rule="evenodd" clip-rule="evenodd" fill="#338A48" d="M162.577,193.118c0.754,0.801,1.27,1.377,1.815,1.923
		c7.285,7.295,14.578,14.58,21.862,21.874c2.427,2.432,2.457,3.561,0.098,5.935c-4.19,4.219-8.396,8.426-12.617,12.615
		c-2.113,2.099-3.534,2.085-5.647-0.041c-7.045-7.086-14.086-14.177-21.094-21.298c-0.817-0.83-1.431-1.863-2.138-2.804
		c-0.233,0.145-0.468,0.289-0.701,0.435c-1.524,4.635-3.049,9.267-4.57,13.899c-0.173,0.526-0.354,1.05-0.502,1.583
		c-0.423,1.521-1.31,2.618-2.969,2.578c-1.608-0.037-2.5-1.074-2.999-2.594c-2.341-7.136-4.733-14.255-7.105-21.38
		c-4.423-13.277-8.831-26.56-13.28-39.828c-0.502-1.495-0.917-2.938,0.292-4.227c1.21-1.289,2.629-0.676,3.983-0.224
		c20.092,6.695,40.181,13.396,60.271,20.091c0.375,0.125,0.753,0.241,1.126,0.373c1.439,0.513,2.593,1.315,2.516,3.034
		c-0.074,1.657-1.178,2.499-2.645,2.976c-4.434,1.44-8.868,2.883-13.304,4.323C164.294,192.581,163.615,192.79,162.577,193.118z
		 M120.109,168.942c-0.109-0.09-0.279-0.28-0.321-0.254c-0.283,0.169-0.176,0.375,0.007,0.563
		c3.329,10.136,6.649,20.275,9.99,30.409c1.974,5.989,3.978,11.971,6.124,18.42c1.401-4.235,2.611-7.988,3.888-11.718
		c1.207-3.534,3.307-4.036,5.915-1.432c7.855,7.842,15.739,15.66,23.509,23.586c1.348,1.377,2.038,1.245,3.233-0.055
		c2.197-2.393,4.506-4.694,6.893-6.897c1.289-1.188,1.467-1.886,0.078-3.258c-7.955-7.855-15.804-15.821-23.66-23.775
		c-2.439-2.471-1.915-4.492,1.36-5.584c3.8-1.265,7.6-2.529,11.872-3.95c-9.184-3.048-17.868-5.971-26.579-8.81
		C134.983,173.769,127.662,170.999,120.109,168.942z"/>
	<path fill-rule="evenodd" clip-rule="evenodd" fill="#338A48" d="M114.831,63.834c-0.009,5.657-4.621,10.303-10.252,10.326
		c-5.647,0.022-10.266-4.582-10.294-10.267c-0.031-5.809,4.625-10.48,10.375-10.413C110.384,53.548,114.841,58.084,114.831,63.834z
		 M100.021,63.633c-0.099,2.507,1.782,4.569,4.297,4.712c2.541,0.144,4.624-1.695,4.765-4.205c0.145-2.598-1.83-4.788-4.396-4.877
		C102.226,59.178,100.118,61.152,100.021,63.633z"/>
	<path fill-rule="evenodd" clip-rule="evenodd" fill="#338A48" d="M80.988,53.479c5.652,0.017,10.282,4.634,10.314,10.287
		c0.034,5.659-4.852,10.493-10.491,10.383c-5.68-0.112-10.241-4.783-10.173-10.42C70.705,58.062,75.35,53.462,80.988,53.479z
		 M81.058,68.359c2.524-0.053,4.491-2.067,4.463-4.565c-0.028-2.459-2.088-4.513-4.544-4.534c-2.581-0.022-4.647,2.118-4.554,4.716
		C76.516,66.505,78.531,68.412,81.058,68.359z"/>
	<path fill-rule="evenodd" clip-rule="evenodd" fill="#338A48" d="M47.102,63.755c0.021-5.727,4.559-10.273,10.255-10.278
		c5.774-0.005,10.353,4.667,10.289,10.496c-0.06,5.596-4.847,10.277-10.409,10.181C51.509,74.054,47.081,69.511,47.102,63.755z
		 M52.844,63.753c-0.029,2.56,1.847,4.529,4.387,4.604c2.608,0.076,4.713-1.98,4.68-4.573c-0.03-2.434-2.126-4.522-4.551-4.534
		C54.863,59.238,52.874,61.222,52.844,63.753z"/>
	<path fill-rule="evenodd" clip-rule="evenodd" fill="#338A48" d="M119.795,169.252c-0.183-0.188-0.29-0.395-0.007-0.563
		c0.042-0.026,0.212,0.164,0.321,0.254C120.007,169.048,119.902,169.151,119.795,169.252z"/>
</g>
</svg>
